<svg xmlns="http://www.w3.org/2000/svg" viewBox="-95.0 -152.0 190.0 190.0"><g><polygon points="-55.4,0.0 0.0,32.0 0.0,29.0 -55.4,-3.0" fill="#1e1e20" stroke="#ece2cf" stroke-width="1" stroke-linejoin="round" stroke-opacity="0.78"/><polygon points="0.0,32.0 55.4,0.0 55.4,-3.0 0.0,29.0" fill="#232325" stroke="#ece2cf" stroke-width="1" stroke-linejoin="round" stroke-opacity="0.78"/><polygon points="0.0,-35.0 55.4,-3.0 0.0,29.0 -55.4,-3.0" fill="#1e1e20" stroke="#ece2cf" stroke-width="1" stroke-linejoin="round" stroke-opacity="0.78"/></g><g><polygon points="2.7,-90.7 8.3,-87.5 8.3,-125.5 2.7,-128.7" fill="#1e1e20" stroke="#ece2cf" stroke-width="1" stroke-linejoin="round" stroke-opacity="0.78"/><polygon points="8.3,-87.5 11.6,-89.4 11.6,-127.4 8.3,-125.5" fill="#232325" stroke="#ece2cf" stroke-width="1" stroke-linejoin="round" stroke-opacity="0.78"/><polygon points="6.1,-130.6 11.6,-127.4 8.3,-125.5 2.7,-128.7" fill="#1e1e20" stroke="#ece2cf" stroke-width="1" stroke-linejoin="round" stroke-opacity="0.78"/></g><g><polygon points="-35.5,-3.0 0.0,17.5 0.0,-125.1 -5.0,-128.0" fill="#1e1e20" stroke="#ece2cf" stroke-width="1" stroke-linejoin="round" stroke-opacity="0.78"/><polygon points="0.0,17.5 35.5,-3.0 5.0,-128.0 0.0,-125.1" fill="#232325" stroke="#ece2cf" stroke-width="1" stroke-linejoin="round" stroke-opacity="0.78"/><line x1="-33.08986" y1="-10" x2="0" y2="9.105" stroke="#ece2cf" stroke-opacity="0.22" stroke-width="1" stroke-linecap="round"/><line x1="0" y1="9.105" x2="33.08986" y2="-10" stroke="#ece2cf" stroke-opacity="0.22" stroke-width="1" stroke-linecap="round"/><line x1="-31.42281" y1="-17" x2="0" y2="1.1424999999999983" stroke="#ece2cf" stroke-opacity="0.22" stroke-width="1" stroke-linecap="round"/><line x1="0" y1="1.1424999999999983" x2="31.42281" y2="-17" stroke="#ece2cf" stroke-opacity="0.22" stroke-width="1" stroke-linecap="round"/><line x1="-29.75576" y1="-24" x2="0" y2="-6.82" stroke="#ece2cf" stroke-opacity="0.22" stroke-width="1" stroke-linecap="round"/><line x1="0" y1="-6.82" x2="29.75576" y2="-24" stroke="#ece2cf" stroke-opacity="0.22" stroke-width="1" stroke-linecap="round"/><line x1="-28.088710000000003" y1="-31" x2="0" y2="-14.782499999999999" stroke="#ece2cf" stroke-opacity="0.22" stroke-width="1" stroke-linecap="round"/><line x1="0" y1="-14.782499999999999" x2="28.088710000000003" y2="-31" stroke="#ece2cf" stroke-opacity="0.22" stroke-width="1" stroke-linecap="round"/><line x1="-26.42166" y1="-38" x2="0" y2="-22.745" stroke="#ece2cf" stroke-opacity="0.22" stroke-width="1" stroke-linecap="round"/><line x1="0" y1="-22.745" x2="26.42166" y2="-38" stroke="#ece2cf" stroke-opacity="0.22" stroke-width="1" stroke-linecap="round"/><line x1="-24.75461" y1="-45" x2="0" y2="-30.7075" stroke="#ece2cf" stroke-opacity="0.22" stroke-width="1" stroke-linecap="round"/><line x1="0" y1="-30.7075" x2="24.75461" y2="-45" stroke="#ece2cf" stroke-opacity="0.22" stroke-width="1" stroke-linecap="round"/><line x1="-23.08756" y1="-52" x2="0" y2="-38.67" stroke="#ece2cf" stroke-opacity="0.22" stroke-width="1" stroke-linecap="round"/><line x1="0" y1="-38.67" x2="23.08756" y2="-52" stroke="#ece2cf" stroke-opacity="0.22" stroke-width="1" stroke-linecap="round"/><line x1="-21.42051" y1="-59" x2="0" y2="-46.6325" stroke="#ece2cf" stroke-opacity="0.22" stroke-width="1" stroke-linecap="round"/><line x1="0" y1="-46.6325" x2="21.42051" y2="-59" stroke="#ece2cf" stroke-opacity="0.22" stroke-width="1" stroke-linecap="round"/><line x1="-19.75346" y1="-66" x2="0" y2="-54.595" stroke="#ece2cf" stroke-opacity="0.22" stroke-width="1" stroke-linecap="round"/><line x1="0" y1="-54.595" x2="19.75346" y2="-66" stroke="#ece2cf" stroke-opacity="0.22" stroke-width="1" stroke-linecap="round"/><line x1="-18.086409999999997" y1="-73" x2="0" y2="-62.557500000000005" stroke="#ece2cf" stroke-opacity="0.22" stroke-width="1" stroke-linecap="round"/><line x1="0" y1="-62.557500000000005" x2="18.086409999999997" y2="-73" stroke="#ece2cf" stroke-opacity="0.22" stroke-width="1" stroke-linecap="round"/><line x1="-16.41936" y1="-80" x2="0" y2="-70.52" stroke="#ece2cf" stroke-opacity="0.22" stroke-width="1" stroke-linecap="round"/><line x1="0" y1="-70.52" x2="16.41936" y2="-80" stroke="#ece2cf" stroke-opacity="0.22" stroke-width="1" stroke-linecap="round"/><line x1="-14.75231" y1="-87" x2="0" y2="-78.4825" stroke="#ece2cf" stroke-opacity="0.22" stroke-width="1" stroke-linecap="round"/><line x1="0" y1="-78.4825" x2="14.75231" y2="-87" stroke="#ece2cf" stroke-opacity="0.22" stroke-width="1" stroke-linecap="round"/><line x1="-13.08526" y1="-94" x2="0" y2="-86.445" stroke="#ece2cf" stroke-opacity="0.22" stroke-width="1" stroke-linecap="round"/><line x1="0" y1="-86.445" x2="13.08526" y2="-94" stroke="#ece2cf" stroke-opacity="0.22" stroke-width="1" stroke-linecap="round"/><line x1="-11.418209999999998" y1="-101" x2="0" y2="-94.4075" stroke="#ece2cf" stroke-opacity="0.22" stroke-width="1" stroke-linecap="round"/><line x1="0" y1="-94.4075" x2="11.418209999999998" y2="-101" stroke="#ece2cf" stroke-opacity="0.22" stroke-width="1" stroke-linecap="round"/><line x1="-9.751159999999999" y1="-108" x2="0" y2="-102.37" stroke="#ece2cf" stroke-opacity="0.22" stroke-width="1" stroke-linecap="round"/><line x1="0" y1="-102.37" x2="9.751159999999999" y2="-108" stroke="#ece2cf" stroke-opacity="0.22" stroke-width="1" stroke-linecap="round"/><line x1="-8.084109999999997" y1="-115" x2="0" y2="-110.3325" stroke="#ece2cf" stroke-opacity="0.22" stroke-width="1" stroke-linecap="round"/><line x1="0" y1="-110.3325" x2="8.084109999999997" y2="-115" stroke="#ece2cf" stroke-opacity="0.22" stroke-width="1" stroke-linecap="round"/><polygon points="-5.0,-128.0 0.0,-125.1 0.0,-146.0" fill="#1e1e20" stroke="#ece2cf" stroke-width="1" stroke-linejoin="round" stroke-opacity="0.78"/><polygon points="0.0,-125.1 5.0,-128.0 0.0,-146.0" fill="#232325" stroke="#ece2cf" stroke-width="1" stroke-linejoin="round" stroke-opacity="0.78"/></g><g><polygon points="6.1,-79.2 9.4,-77.3 9.4,-115.3 6.1,-117.2" fill="#1e1e20" stroke="#ece2cf" stroke-width="1" stroke-linejoin="round" stroke-opacity="0.78"/><polygon points="9.4,-77.3 14.9,-80.5 14.9,-118.5 9.4,-115.3" fill="#232325" stroke="#ece2cf" stroke-width="1" stroke-linejoin="round" stroke-opacity="0.78"/><polygon points="11.6,-120.4 14.9,-118.5 9.4,-115.3 6.1,-117.2" fill="#1e1e20" stroke="#ece2cf" stroke-width="1" stroke-linejoin="round" stroke-opacity="0.78"/></g></svg>
